<svg width="820" height="411" viewBox="0 0 820 411" fill="none" xmlns="http://www.w3.org/2000/svg">
<path d="M308.578 221.152H302.893L294.877 210.012H279.908V221.152H275V191.928H298.353C301.462 191.928 303.902 192.763 305.674 194.431C307.447 196.072 308.333 198.306 308.333 201.132C308.333 203.607 307.61 205.599 306.165 207.105C304.829 208.505 302.989 209.393 300.644 209.77L308.578 221.152ZM297.617 205.612C301.407 205.612 303.302 204.118 303.302 201.132C303.302 197.929 301.257 196.328 297.167 196.328H279.908V205.612H297.617Z" fill="#626262"/>
<path d="M356.791 206.5C356.791 211.29 354.8 215.165 350.82 218.125C347.329 220.708 342.994 222 337.814 222C332.578 222 328.216 220.695 324.726 218.085C320.745 215.125 318.755 211.263 318.755 206.5C318.755 201.818 320.772 197.97 324.808 194.956C328.352 192.319 332.688 191 337.814 191C342.967 191 347.289 192.319 350.779 194.956C354.787 197.97 356.791 201.818 356.791 206.5ZM351.678 206.5C351.678 203.082 350.206 200.311 347.261 198.185C344.726 196.355 341.576 195.44 337.814 195.44C333.696 195.44 330.343 196.49 327.752 198.589C325.162 200.661 323.867 203.298 323.867 206.5C323.867 209.81 325.135 212.487 327.671 214.533C330.206 216.551 333.587 217.56 337.814 217.56C342.013 217.56 345.366 216.537 347.875 214.492C350.411 212.447 351.678 209.783 351.678 206.5Z" fill="#626262"/>
<path d="M405.531 206.056C405.531 210.819 403.799 214.667 400.336 217.6C396.901 220.533 392.334 222 386.635 222C381.427 222 377.078 220.695 373.588 218.085C369.635 215.125 367.658 211.263 367.658 206.5C367.658 201.818 369.662 197.97 373.67 194.956C377.187 192.319 381.645 191 387.044 191C393.561 191 398.905 193.355 403.077 198.064L398.496 200.324C395.415 197.068 391.461 195.44 386.635 195.44C382.872 195.44 379.723 196.355 377.187 198.185C374.243 200.311 372.77 203.082 372.77 206.5C372.77 209.783 374.038 212.447 376.574 214.492C379.11 216.537 382.463 217.56 386.635 217.56C393.179 217.56 397.433 215.044 399.396 210.012H385.613V205.612H405.531V206.056Z" fill="#626262"/>
<path d="M448.957 221.152H417.956V191.928H447.812V196.328H422.864V203.796H440.205V208.195H422.864V216.753H448.957V221.152Z" fill="#626262"/>
<path d="M487.44 221.152H459.67V191.928H464.578V216.753H487.44V221.152Z" fill="#626262"/>
<path d="M501.619 221.152H496.711V191.928H501.619V221.152Z" fill="#626262"/>
<path d="M551.502 206.5C551.502 211.29 549.511 215.165 545.53 218.125C542.04 220.708 537.705 222 532.524 222C527.289 222 522.927 220.695 519.437 218.085C515.456 215.125 513.465 211.263 513.465 206.5C513.465 201.818 515.483 197.97 519.518 194.956C523.063 192.319 527.398 191 532.524 191C537.678 191 541.999 192.319 545.49 194.956C549.498 197.97 551.502 201.818 551.502 206.5ZM546.389 206.5C546.389 203.082 544.917 200.311 541.972 198.185C539.436 196.355 536.287 195.44 532.524 195.44C528.407 195.44 525.054 196.49 522.463 198.589C519.873 200.661 518.578 203.298 518.578 206.5C518.578 209.81 519.846 212.487 522.381 214.533C524.917 216.551 528.298 217.56 532.524 217.56C536.723 217.56 540.077 216.537 542.586 214.492C545.121 212.447 546.389 209.783 546.389 206.5Z" fill="#626262"/>
<path d="M608.045 221.152H580.275V191.928H585.183V216.753H608.045V221.152Z" fill="#626262"/>
<path d="M648.118 221.152H617.116V191.928H646.972V196.328H622.024V203.796H639.365V208.195H622.024V216.753H648.118V221.152Z" fill="#626262"/>
<path d="M693.757 221.152H688.399L684.963 214.613H665.045L661.61 221.152H656.252L671.917 191.928H678.092L693.757 221.152ZM682.55 210.214L675.025 196.086L667.458 210.214H682.55Z" fill="#626262"/>
<path d="M730.871 221.152H703.1V191.928H708.008V216.753H730.871V221.152Z" fill="#626262"/>
<path d="M762 221.152H757.092V191.928H762V221.152Z" fill="#626262"/>
<path d="M147.743 121.975L144.045 118.893H140.039L138.19 120.742L135.416 118.585L131.564 117.969L127.712 124.132C129.253 124.286 132.427 124.625 132.797 124.749C133.259 124.903 134.338 121.05 135.416 121.821C136.279 122.437 137.625 124.543 138.19 125.519L146.819 126.906L149.438 134.456L127.866 132.453L148.822 140.62C141.303 140.62 138.087 141.852 137.42 142.469L167.005 144.626L155.448 154.025L156.989 154.95L174.401 144.164C173.476 140.157 177.637 118.277 178.099 117.198C178.469 116.335 184.314 115.503 187.19 115.195C194.217 116.551 195.151 117.712 194.74 118.123C191.289 117.876 189.81 118.739 189.501 119.201L189.656 120.896L194.74 120.742C196.59 120.989 200.853 123.516 202.753 124.749L197.514 124.44L195.819 127.368L198.439 129.525L205.218 137.23L201.289 135.149L199.209 136.305L193.045 139.849L190.734 157.569L182.413 165.736L196.59 166.352C196.836 165.366 204.191 162.552 207.838 161.267L214.618 162.654C215.953 164.195 218.932 167.647 220.165 169.126C221.398 170.605 222.528 174.673 222.939 176.522L217.391 172.054L220.473 177.293L223.093 184.843L218.47 180.374L216.467 182.069V189.003L214.001 185.151C212.399 185.274 207.273 181.813 204.91 180.066L196.435 180.22L174.401 185.151L168.191 197.186L162.536 206.107L180.41 211.346L185.649 228.604L179.178 258.189L199.517 265.277L207.53 276.371L206.297 285L204.14 292.397L202.907 285H198.593L196.127 286.541L193.97 293.321L192.737 287.466L185.649 279.453C172.603 274.009 146.634 262.935 147.127 262.195C147.62 261.456 153.496 259.216 156.372 258.189L141.888 245.862H152.982L161.303 231.686L145.586 236.925L140.655 233.227L138.806 249.252L118.775 282.535L129.869 283.46L140.655 295.478V310.887L136.957 304.724H134.184L132.643 310.887V319.824L129.869 312.12L124.938 310.887L123.398 316.126L122.473 323.831L118.775 316.126L109.221 310.887L102.75 297.019L100.901 281.302L93.1962 286.541L97.5107 270.516L89.1899 276.371C88.2037 275.632 93.2989 267.845 95.9698 264.044C91.2855 263.305 88.2654 261.682 87.3409 260.963C89.5597 259.483 99.9761 257.675 104.907 256.956V243.705L109.221 236.925L102.75 226.139L77.7874 211.346L81.4855 182.378L70.083 169.742L70.6993 184.227L60.5295 191.623L66.693 199.019L57.7202 194.832C59.0581 198.506 58.1252 196.35 57.4477 194.705L57.7202 194.832C57.6381 194.606 57.5475 194.359 57.4477 194.088C55.7219 189.404 59.3995 175.495 61.454 169.126L69.7748 166.969L84.5673 176.522L83.6427 212.271L100.901 216.893L101.825 207.032C104.044 202.347 114.05 193.78 118.775 190.082L117.542 155.566C116.309 151.375 113.536 167.791 112.303 176.522C110.577 175.536 106.037 168.099 103.982 164.503L102.75 171.9C100.531 169.681 94.6344 154.333 91.9635 146.937L81.4855 157.107C81.4855 149.711 84.3618 132.247 85.8 124.44C85.5534 122.468 77.4792 130.193 73.4729 134.302C72.7333 126.906 78.5065 114.579 81.4855 109.34L78.7119 107.182L87.9572 104.101L72.5484 93.9308L96.5862 94.8554L90.7308 89L123.089 97.3208L132.643 102.868L146.511 107.182L152.366 109.34L149.593 113.962V119.818L147.743 121.975Z" fill="#515151"/>
<path d="M144.045 118.893L147.743 121.975L149.593 119.818V113.962L152.366 109.34L146.511 107.182L132.643 102.868L123.089 97.3208L90.7308 89L96.5862 94.8554L72.5484 93.9308L87.9572 104.101L78.7119 107.182L81.4855 109.34C78.5065 114.579 72.7333 126.906 73.4729 134.302C77.4792 130.193 85.5534 122.468 85.8 124.44C84.3618 132.247 81.4855 149.711 81.4855 157.107L91.9635 146.937C94.6344 154.333 100.531 169.681 102.75 171.9L103.982 164.503C106.037 168.099 110.577 175.536 112.303 176.522C113.536 167.791 116.309 151.375 117.542 155.566L118.775 190.082C114.05 193.78 104.044 202.347 101.825 207.032L100.901 216.893L83.6427 212.271L84.5673 176.522L69.7748 166.969L61.454 169.126C59.3995 175.495 55.7219 189.404 57.4477 194.088C59.1735 198.773 58.1668 196.451 57.4477 194.705L66.693 199.019L60.5295 191.623L70.6993 184.227L70.083 169.742L81.4855 182.378L77.7874 211.346L102.75 226.139L109.221 236.925L104.907 243.705V256.956C99.9761 257.675 89.5597 259.483 87.3409 260.963C88.2654 261.682 91.2855 263.305 95.9698 264.044C93.2989 267.845 88.2037 275.632 89.1899 276.371L97.5107 270.516L93.1962 286.541L100.901 281.302L102.75 297.019L109.221 310.887L118.775 316.126L122.473 323.831L123.398 316.126L124.938 310.887L129.869 312.12L132.643 319.824V310.887L134.184 304.724H136.957L140.655 310.887V295.478L129.869 283.46L118.775 282.535L138.806 249.252L140.655 233.227L145.586 236.925L161.303 231.686L152.983 245.862H141.888L156.372 258.189C153.496 259.216 147.62 261.456 147.127 262.195C146.634 262.935 172.603 274.009 185.649 279.453L192.737 287.466L193.97 293.321L196.127 286.541L198.593 285H202.907L204.14 292.397L206.297 285L207.53 276.371L199.517 265.277L179.178 258.189L185.649 228.604L180.41 211.346L162.536 206.107L168.191 197.186L174.401 185.151L196.435 180.22L204.91 180.066C207.273 181.813 212.399 185.274 214.001 185.151L216.467 189.003V182.069L218.47 180.374L223.093 184.843L220.473 177.293L217.391 172.054L222.939 176.522C222.528 174.673 221.398 170.605 220.165 169.126C218.932 167.647 215.953 164.195 214.618 162.654L207.838 161.267C204.191 162.552 196.836 165.366 196.59 166.352L182.413 165.736L190.734 157.569L193.045 139.849L199.209 136.305L201.289 135.149L205.218 137.23L198.439 129.525L195.819 127.368L197.514 124.44L202.753 124.749C200.853 123.516 196.59 120.989 194.74 120.742L189.656 120.896L189.501 119.201C189.81 118.739 191.289 117.876 194.74 118.123C195.151 117.712 194.217 116.551 187.19 115.195C184.314 115.503 178.469 116.335 178.099 117.198C177.637 118.277 173.476 140.157 174.401 144.164L156.989 154.95L155.448 154.025L167.005 144.626L137.42 142.469C138.087 141.852 141.303 140.62 148.822 140.62L127.866 132.453L149.438 134.456L146.819 126.906L138.19 125.519C137.625 124.543 136.279 122.437 135.416 121.821C134.338 121.05 133.259 124.903 132.797 124.749C132.427 124.625 129.253 124.286 127.712 124.132L131.564 117.969L135.416 118.585L138.19 120.742L140.039 118.893H144.045Z" stroke="white" stroke-width="0.5"/>
<path d="M117.311 155.027L135.108 173.132L130.177 152.484C141.066 155.669 162.613 163.81 165.31 167.585C163.807 163.502 154.965 154.509 155.101 154.025C155.448 152.792 162.806 147.412 165.887 145.049M165.887 145.049L143.429 146.937L133.876 142.469C142.158 142.969 162.69 144.818 165.887 145.049Z" stroke="white" stroke-width="0.5"/>
<path d="M189.193 121.05V118.354L188.115 115.503C186.728 114.394 179.178 116.736 178.407 117.044C177.791 117.291 177.637 120.434 177.637 121.975L185.033 127.06M189.193 121.05L184.571 120.588L185.033 127.06M189.193 121.05H193.662L197.206 124.44L195.511 127.676M185.033 127.06L191.197 125.211L195.511 127.676M185.033 127.06L193.662 139.233L200.75 134.841L197.976 129.602L195.511 127.676M181.874 166.044L171.165 164.503L156.912 155.72L174.709 144.009L190.426 157.415L181.874 166.044ZM181.874 166.044L196.667 166.737M196.667 166.737L197.206 180.22C189.193 181.915 164.184 188.94 156.17 183.995M196.667 166.737L202.137 170.359M196.667 166.737L201.752 163.656L207.838 161.498M202.137 170.359L207.222 168.201M202.137 170.359L204.91 180.22L213.848 184.843L215.928 181.915L217.392 180.682M207.222 168.201L207.838 161.498M207.222 168.201L217.392 171.591M207.222 168.201L208.531 173.517L213.385 175.752L217.392 180.682M207.838 161.498L214.387 163.193L218.932 168.51L217.392 171.591M217.392 171.591L220.396 178.14L217.392 180.682M109.183 237.002L109.684 236.617C119.443 229.528 138.579 214.416 140.582 215.044M109.183 237.002L105.215 244.013M109.183 237.002C109.183 237.002 105.45 230.052 103.851 226.612M140.582 215.044C145.606 212.299 154.858 209.374 161.612 206.261M140.582 215.044C140.394 220.059 141.172 226.398 140.706 232.709M108.913 120.588C108.913 112.082 117.953 101.122 122.473 96.7043L134.646 103.946M108.913 120.588C115.796 114.681 131.441 103.7 134.646 103.946M108.913 120.588L127.096 124.44L132.027 117.044M134.646 103.946L132.027 117.044M134.646 103.946C139.063 104.871 145.895 107.028 145.895 107.768C145.895 108.508 136.957 113.962 132.027 117.044M161.612 206.261C166.187 202.194 169.193 199.189 169.193 199.189C166.187 192.332 135.211 178.012 118.313 170.359C117.696 173.81 118.57 184.843 119.083 189.928C113.947 193.78 104.236 202.024 102.211 206.415C102.012 208.908 101.385 213.062 101.352 216.437M161.612 206.261C167.388 207.45 180.564 211.808 180.564 211.808C180.564 211.808 181.335 215.044 185.264 228.835M103.851 226.612C102.956 224.687 102.212 223.06 101.825 222.286C101.438 221.512 101.326 219.181 101.352 216.437M103.851 226.612L77.4793 211.038M77.4793 211.038L83.6429 212.117M77.4793 211.038L81.4856 182.223M83.6429 212.117L101.352 216.437M83.6429 212.117L84.4133 176.676M84.4133 176.676L81.4856 182.223M84.4133 176.676L70.0831 167.277M81.4856 182.223L70.0831 170.359M70.0831 167.277V170.359M70.0831 167.277C65.6145 176.06 57.8522 193.8 57.756 194.627M70.0831 167.277L61.3 169.434L57.2167 188.31L57.756 194.627M70.0831 170.359L70.6224 183.995L60.2985 191.7M57.756 194.627L66.462 198.557L60.2985 191.7M57.756 194.627L60.2985 191.7" stroke="white" stroke-width="0.5"/>
<path d="M79.1741 107.414L101.517 101.019M79.1741 107.414L101.517 105.642M79.1741 107.414L88.2654 104.255L73.1647 93.6229L121.703 97.167M79.1741 107.414L81.9477 109.032M101.517 101.019L111.379 107.799M101.517 101.019V105.642M111.379 107.799L97.5107 113.654L81.9477 109.032M111.379 107.799L101.517 105.642M149.015 134.148L117.08 130.758L109.221 120.434M149.015 134.148C148.321 132.145 147.397 127.368 146.511 127.137C145.12 126.774 133.105 125.057 126.942 124.441M149.015 134.148L126.942 124.441M109.221 120.434L126.942 124.441M109.221 120.434L91.9635 146.706L81.9477 156.26C82.7182 146.013 85.3377 128.139 85.7999 124.441C86.1011 122.031 77.6076 129.5 74.0122 133.609C72.7795 127.692 78.3621 114.662 81.9477 109.032M151.827 109.648L146.511 107.414L143.737 109.648L149.593 113.654L151.827 109.648Z" stroke="white" stroke-width="0.5"/>
<path d="M156.345 258.226L179.093 258.226M179.093 258.226L193.461 270.797M179.093 258.226C180.091 262.317 182.865 272.354 185.978 279.777M193.461 270.797L198.399 284.715M193.461 270.797L198.998 265.559" stroke="white" stroke-width="0.5"/>
<path d="M119.679 291.001L111.897 293.246L108.006 309.259" stroke="white" stroke-width="0.5"/>
<path d="M119.53 291.001C121.825 289.355 126.594 289.355 129.707 283.967" stroke="white" stroke-width="0.5"/>
<path d="M125.059 310.606C123.435 307.925 121.047 296.28 120.128 291.375C124.479 294.24 132.224 301.923 134.196 304.487" stroke="white" stroke-width="0.5"/>
</svg>
